Genre:Adventure | Drama | Fantasy
Language:English
IMDb:http://www.imdb.com/title/tt0479997/
Source:Season.Of.The.Witch.2010.KORSUB


Format : MPEG-4
Format profile : Base Media
Codec ID : isom
File size : 1.56 GiB
Duration : 1h 34mn
Overall bit rate : 2 361 Kbps


Video
Format profile : High@L4.1
Format settings, CABAC : Yes
Format settings, ReFrames : 3 frames
Codec ID : avc1
Codec ID/Info : Advanced Video Coding
Duration : 1h 34mn
Bit rate mode : Variable
Bit rate : 1 889 Kbps
Maximum bit rate : 11.1 Mbps
Width : 720 pixels
Height : 384 pixels
Display aspect ratio : 1.875
Frame rate mode : Constant
Frame rate : 23.976 fps
Color space : YUV
Chroma subsampling : 4:2:0
Bit depth : 8 bits
Scan type : Progressive
Bits/(Pixel*Frame) : 0.285
Stream size : 1.26 GiB (81%)
Writing library : x264

Audio
ID : 2
Format : AAC
Format/Info : Advanced Audio Codec
Format version : Version 4
Format profile : LC
Format settings, SBR : No
Codec ID : 40
Duration : 1h 34mn
Bit rate mode : Variable
Bit rate : 445 Kbps
Maximum bit rate : 471 Kbps
Channel(s) : 6 channels
Channel positions : Front: L C R, Side: L R, LFE
Sampling rate : 48.0 KHz
Stream size : 301 MiB (19%)
Encoded date : UTC 2011-03-12 09:48:33
Tagged date : UTC 2011-03-12 09:49:01


Plot:
4th-century knights transport a suspected witch to a monastery, where monks deduce her powers could be the source of the Black Plague
